<?xml version="1.0" encoding="UTF-8"?>
<!DOCTYPE svg PUBLIC "-//W3C//DTD SVG 1.1//EN" "http://www.w3.org/Graphics/SVG/1.1/DTD/svg11.dtd">
<!-- Creator: CorelDRAW X8 -->
<svg xmlns="http://www.w3.org/2000/svg" xml:space="preserve" width="21.8807mm" height="20.6244mm" version="1.1" style="shape-rendering:geometricPrecision; text-rendering:geometricPrecision; image-rendering:optimizeQuality; fill-rule:evenodd; clip-rule:evenodd"
viewBox="0 0 2188 2062"
 xmlns:xlink="http://www.w3.org/1999/xlink">
 <defs>
  <style type="text/css">
   <![CDATA[
    .fil0 {fill:#FECC00}
   ]]>
  </style>
 </defs>
 <g id="Layer_x0020_1">
  <metadata id="CorelCorpID_0Corel-Layer"/>
  <path class="fil0" d="M0 1026c0,575 461,1036 1037,1036 558,0 1024,-466 1024,-1024 0,-182 -253,-174 -259,-18 -11,300 -132,515 -369,668 -338,218 -812,109 -1034,-217l-70 -124c-91,-194 -92,-433 0,-631 68,-144 181,-281 322,-353 211,-109 451,-144 679,-41 66,30 134,46 188,-26 48,-64 28,-158 -45,-195 -637,-319 -1473,151 -1473,925zm1025 78l-264 -267c-32,-31 -55,-64 -116,-64 -54,0 -99,35 -118,75 -45,95 31,154 83,206l259 260c43,43 88,104 162,104 72,0 130,-79 170,-120l723 -723c50,-50 95,-95 145,-145 47,-47 119,-95 119,-176 0,-65 -61,-126 -127,-126 -78,0 -111,54 -152,95 -88,88 -853,860 -884,881z"/>
 </g>
</svg>
