<?xml version="1.0" encoding="UTF-8"?>
<!DOCTYPE svg PUBLIC "-//W3C//DTD SVG 1.1//EN" "http://www.w3.org/Graphics/SVG/1.1/DTD/svg11.dtd">
<!-- Creator: CorelDRAW X8 -->
<svg xmlns="http://www.w3.org/2000/svg" xml:space="preserve" width="30.1988mm" height="36.4991mm" version="1.1" style="shape-rendering:geometricPrecision; text-rendering:geometricPrecision; image-rendering:optimizeQuality; fill-rule:evenodd; clip-rule:evenodd"
viewBox="0 0 3020 3650"
 xmlns:xlink="http://www.w3.org/1999/xlink">
 <defs>
  <style type="text/css">
   <![CDATA[
    .fil0 {fill:#FECC00}
   ]]>
  </style>
 </defs>
 <g id="Layer_x0020_1">
  <metadata id="CorelCorpID_0Corel-Layer"/>
  <path class="fil0" d="M185 2477c0,-129 539,54 622,94 201,97 237,108 436,227 139,83 346,236 465,349 63,60 191,208 193,307 -110,26 -147,30 -287,-6 -189,-48 -326,-99 -499,-186 -150,-75 -404,-221 -531,-326 -34,-28 -67,-48 -98,-76 -74,-67 -301,-270 -301,-383zm2835 -1895l0 122c-7,72 -28,146 -65,219 -86,172 -168,213 -311,320 -39,29 -54,43 -89,74 -333,297 -491,550 -491,1029 0,39 172,170 261,304 33,50 74,122 83,200 11,100 -114,266 -174,373 -26,46 -176,320 -210,354 -71,71 -163,73 -260,73l-4 0c-518,0 -1760,-740 -1760,-1184 0,-53 27,-99 50,-135 79,-130 259,-465 319,-550 147,-210 617,-10 685,-10 27,0 204,-126 230,-150 69,-61 130,-122 184,-196 211,-287 233,-562 273,-868 25,-194 140,-362 299,-461 149,-94 234,-96 393,-96 266,0 554,260 587,582zm-2444 1286c353,0 707,191 989,358 150,90 424,291 539,428 205,244 123,193 -83,583 -13,-9 -155,-204 -331,-343 -132,-104 -251,-190 -397,-277 -253,-152 -423,-224 -697,-313 -90,-29 -175,-45 -292,-45l176 -313c23,-39 35,-78 96,-78zm1303 348c-66,-35 -227,-155 -369,-228 -69,-36 -162,-99 -250,-120l144 -116c103,-96 105,-80 212,-223 95,-129 172,-309 224,-482 109,-367 19,-603 270,-783 182,-131 430,-109 581,32 172,159 204,426 61,620 -64,86 -146,130 -237,198 -86,65 -150,133 -226,209 -229,229 -402,564 -410,893z"/>
 </g>
</svg>
