<?xml version="1.0" encoding="UTF-8"?>
<!DOCTYPE svg PUBLIC "-//W3C//DTD SVG 1.1//EN" "http://www.w3.org/Graphics/SVG/1.1/DTD/svg11.dtd">
<!-- Creator: CorelDRAW X8 -->
<svg xmlns="http://www.w3.org/2000/svg" xml:space="preserve" width="25.4mm" height="25.4mm" version="1.1" style="shape-rendering:geometricPrecision; text-rendering:geometricPrecision; image-rendering:optimizeQuality; fill-rule:evenodd; clip-rule:evenodd"
viewBox="0 0 318 318"
 xmlns:xlink="http://www.w3.org/1999/xlink">
 <defs>
  <style type="text/css">
   <![CDATA[
    .fil1 {fill:#FECC00}
    .fil0 {fill:#D4A005}
   ]]>
  </style>
 </defs>
 <g id="Layer_x0020_1">
  <metadata id="CorelCorpID_0Corel-Layer"/>
  <g id="_2841854123888">
   <circle class="fil0" cx="159" cy="159" r="159"/>
   <path class="fil1" d="M57 158c0,-6 1,-16 2,-22 6,-24 21,-48 42,-62 15,-10 28,-15 46,-18l12 0c5,0 18,1 23,2 7,2 9,3 15,5 2,1 2,1 4,2 23,9 45,33 54,55 0,2 1,3 1,5 3,9 5,18 5,27 0,3 1,3 1,6 0,3 0,3 -1,6 0,7 0,10 -2,17 -5,24 -21,48 -41,61 -16,11 -33,18 -53,18 -2,0 -3,1 -6,1l-11 -1c-14,-2 -18,-3 -31,-8 -21,-9 -42,-30 -51,-52 -6,-14 -9,-26 -9,-42zm112 -41l0 82c0,6 6,12 14,12 5,0 11,-6 11,-12l0 -82c0,-6 -5,-11 -13,-11 -6,0 -12,6 -12,11zm-45 0l0 82c0,6 6,12 14,12 6,0 11,-6 11,-12l0 -82c0,-6 -5,-11 -13,-11 -6,0 -12,6 -12,11zm41 169l-11 0c-9,-1 -18,-2 -26,-4 -9,-2 -16,-5 -23,-8 -13,-6 -31,-19 -40,-30 -9,-10 -9,-9 -16,-22 -2,-3 -4,-6 -6,-10 -9,-22 -11,-32 -11,-58 0,-17 6,-39 12,-50 10,-22 23,-37 43,-51 28,-18 66,-26 99,-18 25,6 43,16 61,33l12 13c13,16 22,40 25,61 1,2 1,5 1,7 1,2 0,5 1,7 1,6 -1,22 -3,29 -4,20 -10,33 -21,49l-7 9c-2,2 -2,3 -4,4 -23,24 -54,37 -86,39z"/>
  </g>
 </g>
</svg>
