<?xml version="1.0" encoding="UTF-8"?>
<!DOCTYPE svg PUBLIC "-//W3C//DTD SVG 1.1//EN" "http://www.w3.org/Graphics/SVG/1.1/DTD/svg11.dtd">
<!-- Creator: CorelDRAW X8 -->
<svg xmlns="http://www.w3.org/2000/svg" xml:space="preserve" width="7.5655mm" height="8.1865mm" version="1.1" style="shape-rendering:geometricPrecision; text-rendering:geometricPrecision; image-rendering:optimizeQuality; fill-rule:evenodd; clip-rule:evenodd"
viewBox="0 0 74 80"
 xmlns:xlink="http://www.w3.org/1999/xlink">
 <defs>
  <style type="text/css">
   <![CDATA[
    .fil0 {fill:#FECC00}
   ]]>
  </style>
 </defs>
 <g id="Layer_x0020_1">
  <metadata id="CorelCorpID_0Corel-Layer"/>
  <path class="fil0" d="M18 50l0 25 -9 0 0 -12c0,0 -1,-1 -1,-1 -1,-1 -1,0 -2,-1 -1,0 -2,-1 -2,-2 0,-4 0,-7 1,-10 1,-4 5,-6 9,-6 4,0 4,0 8,2 1,0 11,5 12,6 0,1 0,2 -2,2 0,0 -5,-2 -5,-3 -2,0 -5,-2 -6,-2 -2,0 -3,1 -3,2zm24 -40c-1,-1 -1,-2 0,-3 0,0 1,0 2,0l5 4 11 -11c0,0 1,0 2,0 1,1 1,2 0,3l-12 12c-1,0 -1,0 -2,0l-6 -5zm7 33c0,1 1,2 2,2l12 0c2,0 3,-4 -2,-4l-9 0c-2,0 -3,0 -3,2zm0 -8c0,1 1,2 2,2l11 0c3,0 3,-4 0,-4l-11 0c-1,0 -2,0 -2,2zm-12 -8c0,1 1,2 3,2l21 0c5,0 4,-5 2,-5l-24 0c0,0 -1,1 -1,1 -1,0 -1,1 -1,2zm-37 33l0 -8c0,-5 1,-8 7,-12 0,0 0,0 -1,-1 -5,-5 -2,-14 3,-16 6,-2 12,0 14,5 1,3 1,6 0,9l-1 2c-1,0 -1,0 -1,1l7 3c0,-6 0,-12 0,-17 0,-2 0,-3 0,-5 0,-2 2,-4 4,-5 0,0 1,-1 2,-1l33 0c2,0 4,1 5,2 1,1 2,3 2,5l0 26c0,3 -3,6 -6,6 -1,0 -10,0 -12,0 0,1 1,2 1,3 1,1 1,2 1,3l5 12c0,1 2,5 2,6 0,1 -2,2 -3,2 -2,0 -2,-3 -3,-4l-8 -22 -1 0c0,1 0,1 -1,2l-3 8c0,2 -4,14 -5,15 -1,1 -3,1 -3,0 -2,-1 -1,-3 0,-5 0,-1 1,-1 1,-2 2,-5 4,-12 6,-16 0,-1 0,-1 0,-2l-7 0c-1,2 -3,3 -6,3 -1,0 -3,-1 -5,-1l-4 -3 0 22c0,2 0,5 -2,5l-14 0c-1,0 -2,-1 -2,-2 -1,-3 0,-10 0,-12 -2,-1 -2,-1 -3,-2 -1,-1 -2,-3 -2,-4zm35 -14c-1,0 -3,-1 -3,-1l0 -23c0,-1 1,-2 3,-2l32 0c1,0 2,1 2,2l0 25c0,4 -3,3 -5,3l-26 0c0,-1 4,-7 4,-8 1,-2 3,-4 1,-6 -1,0 -2,0 -2,0 -1,1 -2,2 -2,3 -2,3 -3,5 -4,7zm-22 -19c2,0 3,0 5,1 2,3 2,6 0,9 -2,1 -5,2 -7,1 -4,-2 -4,-9 0,-11 1,0 1,0 2,0z"/>
 </g>
</svg>
