<?xml version="1.0" encoding="UTF-8"?>
<!DOCTYPE svg PUBLIC "-//W3C//DTD SVG 1.1//EN" "http://www.w3.org/Graphics/SVG/1.1/DTD/svg11.dtd">
<!-- Creator: CorelDRAW X8 -->
<svg xmlns="http://www.w3.org/2000/svg" xml:space="preserve" width="9.5737mm" height="9.8429mm" version="1.1" style="shape-rendering:geometricPrecision; text-rendering:geometricPrecision; image-rendering:optimizeQuality; fill-rule:evenodd; clip-rule:evenodd"
viewBox="0 0 74 76"
 xmlns:xlink="http://www.w3.org/1999/xlink">
 <defs>
  <style type="text/css">
   <![CDATA[
    .fil0 {fill:#FECC00}
   ]]>
  </style>
 </defs>
 <g id="Layer_x0020_1">
  <metadata id="CorelCorpID_0Corel-Layer"/>
  <path class="fil0" d="M43 73c-1,-2 0,-2 2,-3 2,-3 1,-3 5,-4 4,-1 3,-1 7,-1 1,0 2,1 2,2l-14 5c0,0 -1,1 -2,1zm-7 -66c0,1 1,2 1,2 2,4 3,9 0,12 0,0 -1,1 -1,1l2 2c2,-1 3,-5 3,-7 0,-5 -1,-7 -3,-11 -1,1 -1,1 -2,1zm31 29c0,1 2,2 3,3 -1,1 -1,0 -3,2 0,1 0,1 0,1 -1,-1 -2,-3 -3,-3 0,0 1,-1 2,-2 0,0 1,-1 1,-1zm-1 -5c0,4 -3,7 -7,7l0 2c4,0 7,3 7,7l0 1 2 0 0 -2c0,-3 3,-6 6,-6l0 -2c-3,0 -6,-3 -6,-6l0 -2 -2 0 0 1zm-61 8c0,0 1,-1 1,-1 1,-1 1,-1 1,-2 1,0 1,1 2,2 0,0 1,1 1,1 -1,0 -2,2 -2,3 -1,0 -1,-1 -3,-2 0,-1 0,-1 0,-1zm1 -7c0,3 -3,6 -6,6l0 2c4,0 6,3 6,6 0,2 0,2 2,2 1,0 1,-1 1,-2 0,-3 2,-6 6,-6l0 -2c-4,0 -6,-3 -6,-6 0,-2 0,-2 -3,-2l0 2zm53 -18c2,-1 2,-2 3,-3 0,1 1,2 1,2 1,0 1,1 2,1 -1,1 -2,2 -3,2 0,1 0,1 0,1 -1,-1 -3,-2 -3,-3zm-5 -1l0 2c4,0 7,3 6,7 0,1 0,1 3,1 1,0 0,-1 0,-3 1,-3 3,-5 6,-5l0 -2c-3,0 -6,-3 -6,-6l0 -1c-3,0 -3,-1 -3,1 1,3 -2,6 -6,6zm-9 47c2,0 2,-1 4,-1 0,1 2,3 2,4l-5 1 -1 -4zm-20 -14c2,0 4,-2 5,-2l4 11c0,1 0,1 0,2 -1,0 -9,4 -10,4l-4 -13c1,0 2,-1 3,-1l3 10c1,0 1,-1 2,-1 0,-1 -2,-6 -2,-7l-1 -3zm19 -10c0,1 1,2 1,3 1,-1 4,-2 6,-2 0,0 0,1 1,2 0,0 0,1 0,2l-5 2c0,1 0,1 0,2 1,0 6,-2 6,-2 0,1 1,1 1,2 0,1 1,1 1,2l-6 2c0,0 1,2 1,2 1,0 5,-2 6,-2 0,1 0,2 0,2 0,1 -1,1 -1,2l-9 4c-1,0 -9,-1 -9,-1 -1,0 -1,-3 -2,-4l-2 -8c-1,-2 -1,-3 0,-5 0,-1 0,-2 1,-2 2,-1 14,-6 14,-6 1,0 1,1 1,1 1,1 1,2 1,2l-6 2zm-34 -14c0,-1 1,-3 3,-3l0 2c1,1 1,1 1,2 1,2 1,2 3,4 -2,0 -5,0 -6,-2 0,0 -1,-2 -1,-3zm31 -19c1,0 1,1 1,2 2,4 3,7 3,11 0,5 -3,8 -5,11 -1,1 -1,1 -1,1 -2,2 -1,2 0,4 -1,0 -1,1 -2,1 -1,0 -2,1 -2,1 -1,-1 -1,-2 -2,-3 0,0 -1,0 -2,0l-4 -1c-4,0 -8,-3 -10,-7 0,-1 -4,-9 -4,-10 0,-1 2,-1 3,-2l25 -8zm4 3c2,0 3,0 4,1 1,1 1,3 0,5 0,1 -1,2 -1,2 -1,-3 -3,-6 -3,-8zm-34 7c0,1 0,3 0,3 -1,1 -3,2 -3,5 -1,3 1,7 5,8 1,0 3,0 5,1 3,0 1,0 4,1 2,1 4,2 7,2 0,0 1,0 1,0 0,0 0,0 1,0 0,0 0,0 1,0l0 2c-2,1 -1,3 -2,5 0,0 0,1 0,2l-27 10 0 0 1 3 9 -4c1,0 4,-2 5,-2l4 13 -8 3 0 3 22 -9c2,0 4,0 6,0 0,1 0,1 1,2l1 5 -2 2c0,0 0,0 0,1 -3,3 -1,4 0,7 0,0 14,-5 15,-6l5 -2c0,0 0,-2 -1,-2 -1,-4 -3,-3 -7,-3 -1,-1 -1,-1 -1,-1l-1 -5c0,0 1,0 2,-1 1,0 3,-1 4,-2 2,-2 1,-4 0,-6 0,-1 -1,-2 -1,-3 -1,-2 -5,-14 -6,-15 -2,-2 -4,-1 -6,0 -1,0 -1,0 -2,1 0,0 -1,0 -1,0 -1,0 -1,-1 -1,-1l3 -3c1,-2 2,-4 3,-6 1,-3 -1,-2 1,-4 1,-1 1,-1 2,-2 1,-1 2,-1 2,-3 1,-3 0,-6 -3,-8 -1,0 -3,-1 -5,0 0,-3 -1,-4 -4,-4 0,0 -1,0 -2,1l-6 2c-1,0 -2,1 -4,1l-11 4c-1,1 -2,1 -2,1 -1,0 -2,0 -2,1 -1,0 -2,2 -2,3z"/>
 </g>
</svg>
