<?xml version="1.0" encoding="UTF-8"?>
<!DOCTYPE svg PUBLIC "-//W3C//DTD SVG 1.1//EN" "http://www.w3.org/Graphics/SVG/1.1/DTD/svg11.dtd">
<!-- Creator: CorelDRAW X8 -->
<svg xmlns="http://www.w3.org/2000/svg" xml:space="preserve" width="8.4712mm" height="8.7105mm" version="1.1" style="shape-rendering:geometricPrecision; text-rendering:geometricPrecision; image-rendering:optimizeQuality; fill-rule:evenodd; clip-rule:evenodd"
viewBox="0 0 22 22"
 xmlns:xlink="http://www.w3.org/1999/xlink">
 <defs>
  <style type="text/css">
   <![CDATA[
    .fil0 {fill:#FEFEFE}
    .fil1 {fill:#FECC00}
   ]]>
  </style>
 </defs>
 <g id="Layer_x0020_1">
  <metadata id="CorelCorpID_0Corel-Layer"/>
  <g id="_2877540163568">
   <path class="fil0" d="M11 9l0 -6c0,-1 -1,-1 -2,-1l-1 0 0 1c0,0 0,0 0,0 0,0 0,0 0,0l0 -1 -4 0 0 1c0,0 0,0 -1,0 0,0 0,0 0,0l0 -1 -1 0c-1,0 -1,0 -1,1l0 6c0,1 0,1 1,1l7 0c1,0 2,0 2,-1zm-6 -1c0,0 0,0 0,-1 1,0 1,1 1,1 0,0 -1,0 -1,0zm-2 -3c0,0 0,0 0,0 0,-1 0,-1 0,0zm6 0c0,0 -1,0 -1,0 0,0 0,-1 1,0 0,0 0,0 0,0zm0 3c0,0 -1,0 -1,0 0,-1 0,-1 1,-1 0,0 0,1 0,1zm-3 -3c-1,0 -1,-1 0,-1 0,0 0,1 0,1zm-2 3c0,-1 -1,-1 -1,-1 -1,1 0,2 0,1 1,0 1,0 1,0zm0 0c0,0 0,0 0,0 0,1 0,1 -1,1 0,0 0,0 0,0 -1,0 -1,0 -1,0 0,-1 0,-1 0,-2 0,0 0,0 0,0 1,-1 1,-1 2,0 0,0 0,0 0,0 0,0 0,0 0,1zm4 -8l0 1 2 0c0,0 1,1 1,1 0,0 0,1 0,1l0 6c0,0 0,1 0,1 0,1 -1,1 -1,1l-8 0c-1,0 -2,-1 -2,-2l0 -6c0,-1 1,-2 2,-2l1 0 0 -1c0,0 0,0 0,0 1,0 1,0 1,0l0 1 4 0 0 -1c0,0 0,0 0,0 0,0 0,0 0,0z"/>
   <path class="fil1" d="M22 14l0 8 -6 0 0 -3c0,0 1,0 1,-1 0,0 0,0 0,0l2 -2c0,0 0,0 0,0 0,0 0,0 0,0 0,0 0,-1 0,0l-2 2c0,0 -1,1 -1,1l-7 0c-1,0 -2,-1 -2,-2 0,0 1,-1 2,-1l7 0 0 -1c0,-2 1,-3 3,-3 1,0 2,0 2,1 1,0 1,1 1,1zm-18 5l8 0c1,0 1,0 1,1 0,0 0,0 0,0l-9 0c-1,0 -1,0 -1,-1 0,-1 -2,-6 -2,-7 0,0 1,0 1,0 0,0 1,3 1,3l1 4zm12 2c0,0 -1,1 -1,1l-13 0 0 -2 13 0c0,0 1,1 1,1zm3 -13c0,1 0,2 0,2 -1,1 -2,2 -3,2 -1,0 -2,-1 -2,-1 0,-1 -1,-1 -1,-2 0,-2 1,-3 3,-3l0 0c2,0 3,1 3,2z"/>
  </g>
 </g>
</svg>
