<?xml version="1.0" encoding="UTF-8"?>
<!DOCTYPE svg PUBLIC "-//W3C//DTD SVG 1.1//EN" "http://www.w3.org/Graphics/SVG/1.1/DTD/svg11.dtd">
<!-- Creator: CorelDRAW X8 -->
<svg xmlns="http://www.w3.org/2000/svg" xml:space="preserve" width="8.8959mm" height="8.8959mm" version="1.1" style="shape-rendering:geometricPrecision; text-rendering:geometricPrecision; image-rendering:optimizeQuality; fill-rule:evenodd; clip-rule:evenodd"
viewBox="0 0 28 28"
 xmlns:xlink="http://www.w3.org/1999/xlink">
 <defs>
  <style type="text/css">
   <![CDATA[
    .fil0 {fill:#FEFEFE}
    .fil1 {fill:#E31E24}
    .fil2 {fill:#23211F}
   ]]>
  </style>
 </defs>
 <g id="Layer_x0020_1">
  <metadata id="CorelCorpID_0Corel-Layer"/>
  <g id="_2841846128432">
   <path class="fil0" d="M8 21c0,-2 0,-3 0,-5 0,-2 0,-4 0,-5 0,-6 9,-8 12,-2 0,1 0,2 0,4 0,2 0,4 0,5l2 0 -3 4c0,0 0,0 0,0 0,0 0,0 -1,0 0,-1 -1,-3 -2,-3 0,0 0,-1 0,-1l1 0c0,-1 0,-6 0,-7 0,-4 -5,-4 -6,-1 0,1 0,3 0,4 0,2 0,5 0,7l-3 0zm5 -19c-2,0 -5,1 -7,3 0,0 0,0 0,0 0,0 0,0 -1,1 0,0 0,0 0,0 0,0 0,0 -1,1 0,1 -1,2 -1,3 -1,1 -1,3 -1,5 0,6 6,12 13,11 6,0 12,-6 11,-13 0,-2 0,-3 -1,-5 -1,0 -1,-1 -2,-2 0,0 0,0 0,0 -1,-2 -3,-3 -5,-3 -1,-1 -3,-1 -5,-1z"/>
   <path class="fil1" d="M13 2c2,0 4,0 5,1 2,0 4,1 5,3 0,0 0,0 0,0 1,1 1,2 2,2 1,2 1,3 1,5 1,7 -5,13 -11,13 -7,1 -13,-5 -13,-11 0,-2 0,-4 1,-5 0,-1 1,-2 1,-3 1,-1 1,-1 1,-1 0,0 0,0 0,0 1,-1 1,-1 1,-1 0,0 0,0 0,0 2,-2 5,-3 7,-3zm-13 12l0 1c0,1 1,4 1,5 1,1 1,1 2,2 2,4 6,6 11,6 1,0 2,0 4,0 1,-1 2,-1 3,-2 1,0 1,0 1,0 2,-2 4,-4 5,-6 0,-1 1,-3 1,-5 0,-2 0,-3 0,-4 -1,-2 -1,-4 -2,-5 -3,-3 -7,-6 -11,-6 -3,0 -5,0 -7,1 -2,1 -3,2 -4,3 -2,3 -4,6 -4,10z"/>
   <path class="fil2" d="M8 21l3 0c0,-2 0,-5 0,-7 0,-1 0,-3 0,-4 1,-3 6,-3 6,1 0,1 0,6 0,7l-1 0c0,0 0,1 0,1 1,0 2,2 2,3 1,0 1,0 1,0 0,0 0,0 0,0l3 -4 -2 0c0,-1 0,-3 0,-5 0,-2 0,-3 0,-4 -3,-6 -12,-4 -12,2 0,1 0,3 0,5 0,2 0,3 0,5z"/>
  </g>
 </g>
</svg>
