<?xml version="1.0" encoding="UTF-8"?>
<!DOCTYPE svg PUBLIC "-//W3C//DTD SVG 1.1//EN" "http://www.w3.org/Graphics/SVG/1.1/DTD/svg11.dtd">
<!-- Creator: CorelDRAW X8 -->
<svg xmlns="http://www.w3.org/2000/svg" xml:space="preserve" width="10.543mm" height="12.2874mm" version="1.1" style="shape-rendering:geometricPrecision; text-rendering:geometricPrecision; image-rendering:optimizeQuality; fill-rule:evenodd; clip-rule:evenodd"
viewBox="0 0 145 169"
 xmlns:xlink="http://www.w3.org/1999/xlink">
 <defs>
  <style type="text/css">
   <![CDATA[
    .fil0 {fill:#FECC00}
   ]]>
  </style>
 </defs>
 <g id="Layer_x0020_1">
  <metadata id="CorelCorpID_0Corel-Layer"/>
  <path class="fil0" d="M0 122l0 39c0,1 1,2 2,2l16 0 0 -43 -16 0c-1,0 -2,1 -2,2zm94 -63c10,-2 19,4 21,13 2,10 -3,19 -13,21 -9,3 -19,-3 -21,-13 -2,-9 4,-19 13,-21zm16 -58c16,-4 31,6 34,21 4,15 -6,31 -21,34 -15,4 -31,-6 -34,-21 -4,-16 6,-31 21,-34zm-88 162c5,0 9,1 12,-2 1,-2 3,-4 3,-6l0 -28c0,-3 -4,-7 -8,-7l-7 0 0 43zm82 -32c0,2 1,3 1,5l8 -6c2,-1 8,-6 10,-6 3,0 5,4 1,7 -2,3 -3,3 -5,6l-15 12c-5,4 -13,10 -19,14 -11,5 -17,0 -26,-4 -3,-1 -6,-2 -9,-3 -2,0 -8,-2 -9,-2 0,2 -1,3 -1,4 7,2 12,3 18,5 7,3 11,6 19,6 8,0 17,-7 23,-12 3,-1 5,-3 7,-5l13 -10c3,-3 10,-10 10,-13l0 -2c0,-3 -3,-7 -6,-7 -5,0 -7,2 -11,5l-7 5c0,0 -1,1 -2,1zm-64 -8c0,2 0,2 0,4 2,0 3,0 5,0 20,-6 23,1 32,3 5,0 12,0 17,1 1,1 1,1 2,2 1,2 1,4 -1,5 -4,4 -18,4 -23,4 -3,1 -8,-1 -8,2 0,3 5,3 8,3 6,0 20,-1 25,-5 6,-4 4,-13 -3,-15 -5,-2 -10,-1 -13,-1 -6,-1 -4,0 -10,-3 -10,-4 -18,-3 -27,-1 -2,1 -3,1 -4,1zm57 -14c0,2 0,4 -1,5 0,2 -1,3 -2,4 -2,1 -3,2 -5,3 -1,1 -3,1 -4,1 -2,0 -4,0 -5,-1 -2,-1 -3,-2 -5,-3 -1,-1 -2,-2 -2,-4 -1,-1 -1,-3 -1,-5 0,-1 0,-3 1,-5 0,-1 1,-3 2,-4 2,-1 3,-2 5,-2 1,-1 3,-1 5,-1 1,0 3,0 4,1 2,0 3,1 5,2 1,2 2,3 2,4 1,2 1,4 1,5z"/>
 </g>
</svg>
