<?xml version="1.0" encoding="UTF-8"?>
<!DOCTYPE svg PUBLIC "-//W3C//DTD SVG 1.1//EN" "http://www.w3.org/Graphics/SVG/1.1/DTD/svg11.dtd">
<!-- Creator: CorelDRAW X8 -->
<svg xmlns="http://www.w3.org/2000/svg" xml:space="preserve" width="11.502mm" height="11.5072mm" version="1.1" style="shape-rendering:geometricPrecision; text-rendering:geometricPrecision; image-rendering:optimizeQuality; fill-rule:evenodd; clip-rule:evenodd"
viewBox="0 0 176 176"
 xmlns:xlink="http://www.w3.org/1999/xlink">
 <defs>
  <style type="text/css">
   <![CDATA[
    .fil0 {fill:#FEFEFE}
   ]]>
  </style>
 </defs>
 <g id="Layer_x0020_1">
  <metadata id="CorelCorpID_0Corel-Layer"/>
  <path class="fil0" d="M81 13c5,0 9,0 14,0l4 8c2,4 3,6 4,10 2,3 3,6 4,9l3 10 -44 0 3 -10c2,-6 5,-13 8,-18l4 -9zm31 5c2,1 8,4 10,6 7,5 14,13 18,21 1,2 1,4 2,5l-19 0c0,-5 -8,-27 -11,-32zm-59 32l-19 0c3,-7 5,-12 12,-19 4,-4 13,-12 18,-13 -1,1 -1,2 -2,4 -3,7 -9,21 -9,28zm-34 7c0,3 3,6 5,6l58 0 0 75 -58 0c-3,0 -5,5 -7,7 -2,2 -4,5 -6,8 -2,2 -11,13 -11,16 0,5 2,7 7,7 4,0 9,-8 12,-12l8 -12c1,-1 1,-1 2,-1l99 0c1,0 1,0 2,1l14 19c3,4 3,5 8,5 2,0 5,-3 5,-7 0,-3 -15,-21 -16,-24 1,-1 23,-23 27,-27 4,-4 8,-7 8,-12 0,-3 -3,-5 -7,-5 -3,0 -7,5 -9,7l-3 3c0,0 -1,0 -1,0l-22 23c-1,1 -4,4 -5,4l-35 0 0 -75 58 0c2,0 5,-3 5,-6 0,-3 -2,-10 -3,-12 -2,-4 -3,-7 -5,-11 -6,-10 -13,-17 -23,-23 -3,-2 -7,-4 -10,-5 -24,-10 -50,-7 -70,8 -11,8 -18,18 -24,30 -1,3 -3,10 -3,13z"/>
 </g>
</svg>
