<?xml version="1.0" encoding="UTF-8"?>
<!DOCTYPE svg PUBLIC "-//W3C//DTD SVG 1.1//EN" "http://www.w3.org/Graphics/SVG/1.1/DTD/svg11.dtd">
<!-- Creator: CorelDRAW X8 -->
<svg xmlns="http://www.w3.org/2000/svg" xml:space="preserve" width="8.3796mm" height="10.4612mm" version="1.1" style="shape-rendering:geometricPrecision; text-rendering:geometricPrecision; image-rendering:optimizeQuality; fill-rule:evenodd; clip-rule:evenodd"
viewBox="0 0 44 55"
 xmlns:xlink="http://www.w3.org/1999/xlink">
 <defs>
  <style type="text/css">
   <![CDATA[
    .fil0 {fill:#FEFEFE}
    .fil1 {fill:#2B2A29}
   ]]>
  </style>
 </defs>
 <g id="Layer_x0020_1">
  <metadata id="CorelCorpID_0Corel-Layer"/>
  <g id="_2841854130928">
   <path class="fil0" d="M15 1l20 0c2,0 4,2 4,4l0 5c1,1 2,3 2,5 0,2 -1,4 -2,5l0 4c3,1 5,3 5,7 0,3 -2,6 -5,6l0 8c0,2 -2,4 -4,4l-20 0c-1,0 -1,0 -1,0 0,0 0,-1 0,-1 1,-1 2,-3 4,-5 0,-1 1,-2 2,-3 0,-1 0,0 0,-1 0,-2 -2,-2 -3,-2 -1,0 -3,2 -4,3 0,1 0,1 -1,1 0,1 -1,0 -1,0l0 -36c0,-2 2,-4 4,-4z"/>
   <path class="fil1" d="M0 51c0,2 0,4 1,4 1,0 1,-1 1,-1 0,-1 0,-2 0,-2 0,-1 0,-2 0,-2l0 -10c0,-3 1,-5 1,-8 0,-1 1,-1 1,-2 1,-1 2,-2 2,-3l5 -6c0,0 0,-13 0,-14 0,-1 0,-3 0,-4 1,-1 2,-1 3,-1l20 0c2,0 3,2 3,4 0,2 1,1 1,0l0 -2c0,-2 -2,-4 -4,-4l-21 0c-2,0 -4,2 -4,4l0 16c0,1 0,1 -1,2 -1,2 -6,7 -6,8 -1,1 -1,1 -1,2 0,2 0,5 -1,7 0,2 0,7 0,8 0,1 0,2 0,4zm18 -46c0,2 1,1 2,1 1,0 1,-1 0,-1 -1,0 -2,-1 -2,0zm4 0c0,1 0,1 1,1l5 0c2,0 2,-1 0,-1l-5 0c-1,0 -1,0 -1,0zm-2 39c0,0 1,1 1,1l6 0c1,0 1,-2 0,-2l-6 0c0,0 -1,0 -1,1zm-4 4c0,1 0,1 0,1l18 0c2,0 4,-2 4,-4l0 -6c0,0 0,-1 -1,-1 -1,0 0,5 -1,7 0,3 -2,2 -5,2l-12 0c-2,0 -3,0 -3,1zm-7 -23l0 16c0,1 1,1 1,1 3,0 5,-5 7,-5 1,0 2,1 1,2l-1 2c-2,3 -2,4 -4,6 -1,1 -1,1 -2,2 0,0 0,1 -1,1 -3,2 -3,0 -3,4 0,0 1,1 1,1 1,0 1,-1 1,-2 1,0 2,-2 3,-2 1,-1 1,-1 2,-2 0,-1 1,-1 2,-2 0,-1 1,-2 1,-3 1,-1 2,-2 2,-3 1,-1 1,-1 1,-3 0,-1 -1,-2 -1,-2 -4,-2 -6,2 -8,4l0 -15c0,-2 -2,-1 -2,0zm28 11c-1,0 -2,-1 -2,-1 0,0 -1,0 -1,0 0,-4 5,-4 5,0 0,0 -1,1 -2,1zm-1 -7c0,-1 1,-1 1,0 0,1 -1,1 -1,0zm-2 0c0,1 0,1 0,2 0,0 0,0 0,0 -1,1 -2,2 -2,2 0,0 -1,-2 -1,-3 0,-1 0,-2 1,-2 1,-3 5,-5 8,-2 3,3 2,6 1,7 0,-1 -2,-2 -2,-2 0,-1 0,-1 0,-2 0,-1 -1,-3 -3,-3 -1,0 -2,2 -2,3zm-5 1l0 1c0,3 4,6 7,6l1 0c3,0 7,-3 7,-6l0 -1c0,-4 -4,-7 -7,-7l-1 0c-3,0 -7,3 -7,7zm-10 -1c-1,0 -2,0 -3,0 0,-4 6,-4 6,-1 -1,1 -2,1 -3,1zm-1 -6c0,-1 2,-1 2,0 0,1 -2,1 -2,0zm-2 0c0,1 1,1 1,1 0,1 -1,1 -1,1 0,0 0,0 0,0 -1,1 -1,1 -1,2 -1,0 -1,-2 -1,-3 0,-2 1,-4 3,-5 2,-1 4,-1 6,1 0,0 1,1 1,1 1,2 1,5 0,6 0,-1 -1,-2 -2,-2 0,0 0,0 0,-1 0,0 0,0 0,-1 0,-2 -1,-3 -3,-3 -1,0 -3,1 -3,3zm-4 0l0 1c0,4 3,7 7,7l1 0c3,0 7,-3 7,-7l0 -1c0,-3 -4,-7 -7,-7l-1 0c-4,0 -7,4 -7,7zm22 -3c-1,0 -2,0 -3,-1 0,0 0,-1 1,-2 2,-1 5,0 5,2 -1,1 -2,1 -3,1zm-1 -6c0,-1 2,-1 2,0 0,1 -2,1 -2,0zm-2 -1c0,2 0,1 0,2l-1 1c0,1 0,1 0,2 -1,-1 -2,-2 -2,-3 0,-1 1,-2 1,-3 0,-1 2,-2 3,-2 3,-2 6,0 7,2 1,2 0,5 -1,6 0,-1 -2,-3 -2,-3 0,-1 1,0 1,-2 0,-1 -2,-2 -3,-2 -2,0 -3,1 -3,2zm-4 1l0 1c0,4 3,7 6,7l1 0c4,0 7,-3 7,-7l0 -1c0,-3 -3,-7 -7,-7l-1 0c-3,0 -6,4 -6,7z"/>
  </g>
 </g>
</svg>
