<?xml version="1.0" encoding="UTF-8"?>
<!DOCTYPE svg PUBLIC "-//W3C//DTD SVG 1.1//EN" "http://www.w3.org/Graphics/SVG/1.1/DTD/svg11.dtd">
<!-- Creator: CorelDRAW X8 -->
<svg xmlns="http://www.w3.org/2000/svg" xml:space="preserve" width="10.0502mm" height="10.0308mm" version="1.1" style="shape-rendering:geometricPrecision; text-rendering:geometricPrecision; image-rendering:optimizeQuality; fill-rule:evenodd; clip-rule:evenodd"
viewBox="0 0 36 36"
 xmlns:xlink="http://www.w3.org/1999/xlink">
 <defs>
  <style type="text/css">
   <![CDATA[
    .fil1 {fill:#FEFEFE}
    .fil0 {fill:#FECC00}
   ]]>
  </style>
 </defs>
 <g id="Layer_x0020_1">
  <metadata id="CorelCorpID_0Corel-Layer"/>
  <g id="_2841854136272">
   <path class="fil0" d="M2 2c0,0 1,2 1,2 1,0 1,1 2,2 -1,0 -1,1 -2,2 -1,1 -1,1 -1,2 -1,1 -1,1 -1,2 -1,2 -1,3 -1,5l0 1c0,3 1,5 2,7l0 1c1,2 2,3 4,5l1 1c0,0 0,0 0,0 1,1 2,1 3,2 3,1 5,1 8,1 0,0 0,-4 0,-5 -3,0 -5,0 -8,-2 -1,0 -1,-1 -1,-1 -1,0 -1,0 -1,0l0 -1c-1,-1 -2,-2 -2,-3 -2,-4 -2,-8 1,-12 0,-1 1,-2 1,-2 1,1 3,3 4,3 0,0 0,0 0,-1l2 -8c0,0 0,-2 0,-3 0,0 -1,0 -1,0l-9 1c0,0 -1,1 -1,1 -1,0 -1,0 -1,0z"/>
   <path class="fil1" d="M17 5c3,0 5,1 7,2 2,1 4,2 5,5 3,4 3,10 -1,14 0,0 0,0 -1,1 0,-1 -2,-3 -3,-4 -1,1 0,1 -1,1 0,1 0,2 0,2l-1 6c0,1 0,3 0,4 0,0 0,0 0,0l11 -2c0,0 0,0 1,0 1,0 0,-1 -1,-2 -1,-1 -2,-2 -2,-2 0,0 1,-1 2,-2 0,0 0,-1 0,-1 0,0 0,0 1,0 0,-1 0,-1 0,-2 1,-2 2,-5 2,-8 0,-1 -1,-3 -1,-5l-1 -2c-1,-1 -1,-1 -1,-2 -1,0 -1,-1 -1,-1 -3,-4 -8,-6 -13,-6l-1 0c0,0 0,0 0,1l-1 3z"/>
  </g>
 </g>
</svg>
