<?xml version="1.0" encoding="UTF-8"?>
<!DOCTYPE svg PUBLIC "-//W3C//DTD SVG 1.1//EN" "http://www.w3.org/Graphics/SVG/1.1/DTD/svg11.dtd">
<!-- Creator: CorelDRAW X8 -->
<svg xmlns="http://www.w3.org/2000/svg" xml:space="preserve" width="4.1896mm" height="18.2389mm" version="1.1" style="shape-rendering:geometricPrecision; text-rendering:geometricPrecision; image-rendering:optimizeQuality; fill-rule:evenodd; clip-rule:evenodd"
viewBox="0 0 19 82"
 xmlns:xlink="http://www.w3.org/1999/xlink">
 <defs>
  <style type="text/css">
   <![CDATA[
    .fil0 {fill:#FECC00}
   ]]>
  </style>
 </defs>
 <g id="Layer_x0020_1">
  <metadata id="CorelCorpID_0Corel-Layer"/>
  <g id="_2841854135664">
   <polygon class="fil0" points="7,21 12,21 12,28 19,28 19,33 12,33 12,40 7,40 7,33 0,33 0,28 7,28 "/>
   <polygon class="fil0" points="7,0 12,0 12,7 19,7 19,12 12,12 12,19 7,19 7,12 0,12 0,7 7,7 "/>
   <polygon class="fil0" points="7,63 12,63 12,70 19,70 19,75 12,75 12,82 7,82 7,75 0,75 0,70 7,70 "/>
   <polygon class="fil0" points="7,42 12,42 12,49 19,49 19,54 12,54 12,61 7,61 7,54 0,54 0,49 7,49 "/>
  </g>
 </g>
</svg>
