<?xml version="1.0" encoding="UTF-8"?>
<!DOCTYPE svg PUBLIC "-//W3C//DTD SVG 1.1//EN" "http://www.w3.org/Graphics/SVG/1.1/DTD/svg11.dtd">
<!-- Creator: CorelDRAW X8 -->
<svg xmlns="http://www.w3.org/2000/svg" xml:space="preserve" width="7.9995mm" height="7.9839mm" version="1.1" style="shape-rendering:geometricPrecision; text-rendering:geometricPrecision; image-rendering:optimizeQuality; fill-rule:evenodd; clip-rule:evenodd"
viewBox="0 0 60 59"
 xmlns:xlink="http://www.w3.org/1999/xlink">
 <defs>
  <style type="text/css">
   <![CDATA[
    .fil0 {fill:#FECC00}
   ]]>
  </style>
 </defs>
 <g id="Layer_x0020_1">
  <metadata id="CorelCorpID_0Corel-Layer"/>
  <path class="fil0" d="M14 11c0,1 3,4 4,4l4 4 -2 11c1,0 2,-1 2,-1 1,-1 2,-1 3,-2 0,0 5,-2 5,-2 0,0 4,2 5,2 0,1 4,3 5,3l-2 -8c0,-1 0,-2 0,-3 0,0 3,-3 4,-4 0,0 3,-3 3,-4l-10 -1c0,0 0,0 -1,-1 0,-1 -1,-3 -2,-4 0,-1 -1,-2 -1,-3 0,0 -1,-1 -1,-2l-5 9c0,1 0,1 -2,1l-6 1c-1,0 -2,0 -3,0zm34 15l5 5 3 -3 -5 -5 -3 3zm-44 2l2 3 5 -5 -2 -3 -5 5zm44 -23l3 3c0,0 4,-5 4,-5 0,-1 -2,-3 -2,-3 0,1 -4,4 -5,5zm-44 -2l5 5c0,0 2,-2 2,-3l-2 -2c-1,-1 -2,-2 -2,-3l-3 3zm48 11l0 3c0,0 1,0 1,0l7 0 0 -3 -7 0c0,0 -1,0 -1,0zm-52 3l7 0c0,0 0,0 0,0l0 -3c0,0 0,0 0,0l-7 0 0 3zm16 24l28 0 0 -6 -28 0 0 6zm-6 9l39 0 0 -6 -39 0 0 6zm-5 9l49 0 0 -5 -49 0 0 5z"/>
 </g>
</svg>
