<?xml version="1.0" encoding="UTF-8"?>
<!DOCTYPE svg PUBLIC "-//W3C//DTD SVG 1.1//EN" "http://www.w3.org/Graphics/SVG/1.1/DTD/svg11.dtd">
<!-- Creator: CorelDRAW X8 -->
<svg xmlns="http://www.w3.org/2000/svg" xml:space="preserve" width="14.6853mm" height="10.0651mm" version="1.1" style="shape-rendering:geometricPrecision; text-rendering:geometricPrecision; image-rendering:optimizeQuality; fill-rule:evenodd; clip-rule:evenodd"
viewBox="0 0 103 71"
 xmlns:xlink="http://www.w3.org/1999/xlink">
 <defs>
  <style type="text/css">
   <![CDATA[
    .fil0 {fill:#FEFEFE}
    .fil1 {fill:#FEFEFE;fill-rule:nonzero}
   ]]>
  </style>
 </defs>
 <g id="Layer_x0020_1">
  <metadata id="CorelCorpID_0Corel-Layer"/>
  <g id="_2841846142064">
   <path class="fil0" d="M5 5l93 0 0 61 -93 0 0 -61zm-5 66l103 0 0 -71 -103 0 0 71z"/>
   <path class="fil0" d="M16 18l5 0 0 18 -5 0 0 -18zm-5 24l16 0 0 -30 -16 0 0 30z"/>
   <path class="fil0" d="M64 18l5 0 0 18 -5 0 0 -18zm-5 24l15 0 0 -30 -15 0 0 30z"/>
   <path class="fil0" d="M82 18l5 0 0 18 -5 0 0 -18zm-5 24l16 0 0 -30 -16 0 0 30z"/>
   <polygon class="fil0" points="30,18 38,18 38,24 30,24 30,30 38,30 38,36 30,36 30,42 43,42 43,12 30,12 "/>
   <polygon class="fil0" points="48,24 54,24 54,19 48,19 "/>
   <polygon class="fil0" points="48,35 54,35 54,30 48,30 "/>
   <path class="fil1" d="M22 58c0,1 0,2 -1,3 -1,0 -2,1 -3,1l-3 0 0 -16 3 0c1,0 2,1 3,1 1,1 1,2 1,3l0 8zm-5 1l1 0c1,0 1,0 1,0 1,0 1,-1 1,-1l0 -8c0,0 0,-1 -1,-1 0,0 0,0 -1,0l-1 0 0 10zm10 -1l-1 4 -2 0 2 -16 3 0 3 16 -2 0 -1 -4 -2 0zm1 -8l-1 6 2 0 -1 -6zm6 5l-3 -9 3 0 2 6 1 -6 3 0 -3 9 0 7 -3 0 0 -7zm14 3c0,1 0,2 -1,3 0,0 -1,0 -1,1 -1,0 -1,0 -2,0 0,0 -1,0 -2,-1 0,0 -1,-1 -1,-1 0,-1 0,-2 0,-3l2 0c0,1 0,2 0,2 1,1 1,1 1,1 1,0 1,-1 2,-1 0,0 0,-1 0,-1 0,-1 0,-1 -1,-2 -1,0 -1,-1 -2,-2 -1,-1 -1,-1 -2,-2 0,-1 0,-1 0,-2 0,-1 0,-2 1,-3 1,-1 1,-1 2,-1 1,0 2,0 2,1 1,0 1,0 2,1 0,0 0,1 0,2l-2 0c0,-1 0,-1 -1,-1 0,-1 0,-1 -1,-1 0,0 0,0 -1,1 0,0 0,0 0,1 0,1 0,1 1,2 0,0 1,1 1,1 1,0 1,1 1,1 1,1 1,1 1,2 1,0 1,0 1,0 0,1 0,1 0,2zm6 -9l-3 0 0 -3 8 0 0 3 -3 0 0 13 -2 0 0 -13zm10 -3c1,0 2,1 2,1 1,1 1,2 1,3l0 8c0,1 0,2 -1,3 0,0 -1,1 -2,1 -1,0 -2,-1 -3,-1 -1,-1 -1,-2 -1,-3l0 -8c0,-1 0,-2 1,-3 1,0 2,-1 3,-1zm1 4c0,-1 0,-1 0,-1 -1,0 -1,-1 -1,-1 -1,0 -1,1 -1,1 -1,0 -1,0 -1,1l0 8c0,1 0,1 1,1 0,0 0,0 1,0 0,0 0,0 1,0 0,0 0,0 0,-1l0 -8zm11 12c-1,0 -2,-1 -3,-1 -1,-1 -1,-2 -1,-3l0 -8c0,-1 1,-2 1,-3 1,0 2,-1 3,-1 1,0 2,1 2,1 1,1 1,2 1,3l0 2 -2 0 0 -2c0,-1 0,-1 0,-1 -1,0 -1,-1 -1,-1 -1,0 -1,1 -1,1 0,0 -1,0 -1,1l0 8c0,1 1,1 1,1 0,0 0,0 1,0 0,0 0,0 1,0 0,0 0,0 0,-1l0 -3 -1 0 0 -2 3 0 0 5c0,1 0,2 -1,3 0,0 -1,1 -2,1zm9 -16c1,0 2,1 3,1 0,1 1,2 1,3l0 8c0,1 -1,2 -1,3 -1,0 -2,1 -3,1 -1,0 -2,-1 -3,-1 0,-1 -1,-2 -1,-3l0 -8c0,-1 1,-2 1,-3 1,0 2,-1 3,-1zm1 4c0,-1 0,-1 0,-1 0,0 -1,-1 -1,-1 0,0 -1,1 -1,1 0,0 0,0 0,1l0 8c0,1 0,1 0,1 0,0 1,0 1,0 0,0 1,0 1,0 0,0 0,0 0,-1l0 -8z"/>
  </g>
 </g>
</svg>
