<?xml version="1.0" encoding="UTF-8"?>
<!DOCTYPE svg PUBLIC "-//W3C//DTD SVG 1.1//EN" "http://www.w3.org/Graphics/SVG/1.1/DTD/svg11.dtd">
<!-- Creator: CorelDRAW X8 -->
<svg xmlns="http://www.w3.org/2000/svg" xml:space="preserve" width="9.1662mm" height="7.7765mm" version="1.1" style="shape-rendering:geometricPrecision; text-rendering:geometricPrecision; image-rendering:optimizeQuality; fill-rule:evenodd; clip-rule:evenodd"
viewBox="0 0 30 25"
 xmlns:xlink="http://www.w3.org/1999/xlink">
 <defs>
  <style type="text/css">
   <![CDATA[
    .fil0 {fill:#FECC00}
   ]]>
  </style>
 </defs>
 <g id="Layer_x0020_1">
  <metadata id="CorelCorpID_0Corel-Layer"/>
  <path class="fil0" d="M2 8c0,-1 1,-1 1,-1 0,0 1,0 1,0 0,0 0,-1 1,-1 0,0 1,1 1,1 0,1 1,0 1,1 0,0 0,0 0,1 0,0 -1,0 -1,0 0,1 1,1 1,2l-1 0c0,0 -1,-1 -1,-1 -1,0 -1,1 -2,1 0,0 0,0 0,-1 0,-1 0,-1 0,-1 0,-1 -1,-1 -1,-1zm24 5c0,1 0,2 -1,3 0,1 -1,1 -1,1 -2,1 -5,1 -7,1l-8 0c-1,0 -1,0 -1,1 -1,0 -2,1 -2,1 1,1 1,1 2,1l13 0c1,0 1,0 1,0l3 3c0,0 0,0 0,0 1,1 1,1 2,1 0,0 0,-1 -1,-1 0,-3 0,-3 1,-3 1,0 3,-2 3,-3l0 -11c0,-1 -2,-3 -4,-3l0 9zm-9 -5c1,-1 2,0 2,-1l0 0c1,-1 1,-1 1,-1 1,0 1,1 1,1 0,1 2,0 2,1 0,0 -1,1 -1,1 -1,0 1,2 -1,2 -1,-1 -1,-1 -2,0 -1,0 -1,0 -1,-1 1,-1 1,-1 0,-2 -1,0 0,0 -1,0zm-3 1c0,1 1,2 -1,2 0,-1 0,-1 -1,-1 0,0 -1,1 -1,1 0,0 0,0 0,-1 0,0 0,-1 0,-1 0,0 -2,-1 0,-2 0,0 0,0 1,0 0,0 0,-1 1,-1 0,0 0,1 0,1 1,1 2,0 2,1 0,0 0,0 0,0 -1,1 -1,1 -1,1zm-14 -6l0 11c0,0 0,1 0,1 1,1 2,2 3,2 1,0 1,0 0,1l0 2c0,1 0,1 0,1 1,0 1,-1 1,-1 1,0 1,0 1,-1 1,0 1,-1 2,-2 1,-1 1,0 3,0l11 0c1,0 2,0 3,-1 0,-1 1,-1 1,-3l0 -10c0,-1 -1,-2 -1,-2 -1,-1 -2,-1 -3,-1l-17 0c-1,0 -2,0 -3,1 0,0 -1,1 -1,2z"/>
 </g>
</svg>
