<?xml version="1.0" encoding="UTF-8"?>
<!DOCTYPE svg PUBLIC "-//W3C//DTD SVG 1.1//EN" "http://www.w3.org/Graphics/SVG/1.1/DTD/svg11.dtd">
<!-- Creator: CorelDRAW X8 -->
<svg xmlns="http://www.w3.org/2000/svg" xml:space="preserve" width="9.5896mm" height="9.5896mm" version="1.1" style="shape-rendering:geometricPrecision; text-rendering:geometricPrecision; image-rendering:optimizeQuality; fill-rule:evenodd; clip-rule:evenodd"
viewBox="0 0 51 51"
 xmlns:xlink="http://www.w3.org/1999/xlink">
 <defs>
  <style type="text/css">
   <![CDATA[
    .fil0 {fill:#2B2A29}
   ]]>
  </style>
 </defs>
 <g id="Layer_x0020_1">
  <metadata id="CorelCorpID_0Corel-Layer"/>
  <path class="fil0" d="M26 16c0,-1 -1,-2 -3,-2 -1,0 -1,1 -2,1 -3,-2 -4,-6 -2,-9 0,-1 1,-2 1,-3 1,0 1,0 2,-1 3,-1 6,-1 8,2 3,2 3,7 1,10 -1,1 -3,2 -5,2zm8 30l0 3c0,1 1,1 1,2l0 0c1,-1 1,-1 1,-1 0,-1 0,-4 0,-4 0,-1 3,-2 3,-6 0,-1 0,-1 -1,-1 -1,0 0,1 -1,4 -1,0 -1,0 -1,1 0,0 0,0 -1,0 0,1 -1,1 -1,2zm4 -26c0,1 0,2 1,2 1,2 3,2 5,1 2,-1 0,-2 0,-2 -1,0 -1,1 -2,1 -2,0 -3,-2 -2,-4 1,-1 1,-1 2,-1 1,0 1,1 2,1 0,0 1,-1 0,-2 -2,-1 -6,1 -6,4zm-29 -1c0,0 0,-1 0,0l1 2 -2 0c0,-1 1,-2 1,-2zm-3 4c0,1 1,1 1,-1l3 0c0,1 1,1 1,2 0,0 1,0 1,-1 0,-1 -1,-3 -1,-4 -1,-1 -1,-1 -1,-2 0,-1 0,-1 -1,-1 -1,0 -1,0 -1,0l-2 5c0,0 0,1 0,2zm20 -12l-2 0 0 -2 2 0c0,0 1,1 1,1 0,1 -1,1 -1,1zm-1 -3l-1 0 0 -1c2,0 2,-1 2,0 0,1 0,1 -1,1zm-2 -2l0 6c0,1 1,1 3,1 0,0 1,0 1,-1 2,-1 1,-3 0,-4 1,-1 0,-3 -2,-3 -1,0 -2,0 -2,1zm-20 7c0,1 1,1 1,1 0,0 1,-1 1,-1 5,-3 11,2 11,6 0,2 0,4 -2,6 -5,5 -13,1 -13,-5 0,-2 1,-3 1,-4 0,-1 0,-1 -1,-1 0,0 0,1 0,1 -1,1 -1,2 -1,3l0 1c0,2 1,3 2,5l1 1c0,1 1,1 2,2 6,2 13,-1 13,-9 0,-3 -3,-6 -5,-7 -3,-2 -6,-1 -9,0 0,0 -1,1 -1,1zm39 14c-1,0 -2,0 -3,-1 -1,0 -2,-1 -2,-1l-1 -1c-2,-2 -2,-5 -1,-7 1,-2 1,-3 2,-3 1,-1 1,-1 2,-1 2,-1 6,-1 8,2 1,1 2,2 2,5 0,0 0,2 -1,3 0,0 0,1 -1,2 -1,1 -3,2 -5,2zm9 -8l0 1c-1,1 -1,3 -1,4 -1,0 -2,2 -2,2 -4,3 -8,3 -11,1 -2,-1 -4,-4 -4,-7 0,-4 2,-7 5,-8 1,-1 2,-1 4,-1 3,0 5,1 6,3 2,1 2,3 3,5zm-35 -11c0,2 1,4 2,6 1,1 1,2 3,2 -1,4 -1,7 -1,10 0,3 0,7 0,10l-3 -3c-1,-1 -2,-2 -3,-2 -3,0 -4,3 -2,5l4 5c2,2 3,3 4,4 1,1 0,1 0,3 0,1 0,3 1,3 1,0 1,-1 1,-1l0 -4c0,-1 -1,-2 -2,-2l0 -1c0,0 0,0 0,0 -1,-1 -1,-1 -1,-1l-3 -4c-1,0 -3,-3 -3,-4 0,-1 0,-1 1,-1 1,0 1,0 1,0l5 4c0,1 1,1 1,1 1,0 1,-1 1,-2 0,-2 0,-19 0,-20 1,0 2,0 3,0 0,1 0,10 0,11 0,0 0,3 0,4 0,0 0,1 1,0 1,0 0,-2 1,-3 0,-1 1,-1 2,0 0,1 -1,4 1,4 1,0 1,-1 1,-2 0,-1 0,-1 1,-1 0,0 1,0 1,0 1,1 -1,5 1,5 0,0 1,0 1,-1 0,-1 0,-2 0,-2 0,-1 1,-1 2,-1 1,1 0,6 1,6 1,0 1,0 1,-1l0 -4c0,-2 -2,-3 -3,-3 -1,0 -1,1 -2,1 0,-1 -1,-2 -1,-2 -1,0 -2,0 -3,0 0,-1 -2,-1 -4,-1l0 -7c0,-2 0,-1 3,-2 2,-1 3,-2 3,-3 2,-2 2,-3 2,-6 0,-4 -4,-8 -9,-8 -1,0 -2,0 -4,1 0,0 -1,1 -1,1 -1,1 -2,2 -3,3 0,1 -1,2 -1,3z"/>
 </g>
</svg>
