<?xml version="1.0" encoding="UTF-8"?>
<!DOCTYPE svg PUBLIC "-//W3C//DTD SVG 1.1//EN" "http://www.w3.org/Graphics/SVG/1.1/DTD/svg11.dtd">
<!-- Creator: CorelDRAW X8 -->
<svg xmlns="http://www.w3.org/2000/svg" xml:space="preserve" width="5.8042mm" height="5.7949mm" version="1.1" style="shape-rendering:geometricPrecision; text-rendering:geometricPrecision; image-rendering:optimizeQuality; fill-rule:evenodd; clip-rule:evenodd"
viewBox="0 0 12 12"
 xmlns:xlink="http://www.w3.org/1999/xlink">
 <defs>
  <style type="text/css">
   <![CDATA[
    .fil0 {fill:#FECC00}
   ]]>
  </style>
 </defs>
 <g id="Layer_x0020_1">
  <metadata id="CorelCorpID_0Corel-Layer"/>
  <path class="fil0" d="M0 3l0 7c0,1 0,1 0,1 0,0 0,0 1,0 0,0 0,1 0,1l7 0c1,0 1,-1 1,-1 0,0 1,0 1,-1l0 -4c0,0 -1,0 -1,0 0,0 0,0 0,1l0 3c0,0 0,1 -1,1l-7 0c0,0 0,-1 0,-1l0 -7c0,0 1,0 1,0l3 0c0,0 0,0 0,0 1,0 1,-1 0,-1l-4 0c0,0 0,0 -1,0 0,1 0,1 0,1zm9 -2l2 2 0 -1c0,0 1,0 1,-1l0 0c0,0 0,0 -1,0 0,0 0,0 0,0 0,-1 -1,-1 -2,-1l0 1zm-5 6c0,1 1,0 1,0l1 0c0,0 0,0 0,0 1,0 4,-4 4,-4l-2 -1c0,0 -3,3 -3,3 -1,0 -1,0 -1,1 0,0 0,0 0,0 0,0 0,1 0,1z"/>
 </g>
</svg>
