<?xml version="1.0" encoding="UTF-8"?>
<!DOCTYPE svg PUBLIC "-//W3C//DTD SVG 1.1//EN" "http://www.w3.org/Graphics/SVG/1.1/DTD/svg11.dtd">
<!-- Creator: CorelDRAW X8 -->
<svg xmlns="http://www.w3.org/2000/svg" xml:space="preserve" width="5.9515mm" height="7.32mm" version="1.1" style="shape-rendering:geometricPrecision; text-rendering:geometricPrecision; image-rendering:optimizeQuality; fill-rule:evenodd; clip-rule:evenodd"
viewBox="0 0 41 50"
 xmlns:xlink="http://www.w3.org/1999/xlink">
 <defs>
  <style type="text/css">
   <![CDATA[
    .fil0 {fill:#FECC00}
   ]]>
  </style>
 </defs>
 <g id="Layer_x0020_1">
  <metadata id="CorelCorpID_0Corel-Layer"/>
  <path class="fil0" d="M29 44l0 -4c0,-1 0,-1 1,-1l5 0 -6 5zm-18 -3l8 0c3,0 3,-3 0,-3l-8 0c-2,0 -2,3 0,3zm0 -9l12 0c1,0 2,-1 2,-2 0,-1 -1,-2 -3,-2l-10 0c-3,0 -3,4 -1,4zm0 -19l19 0c2,0 2,-4 0,-4l-19 0c-2,0 -2,4 0,4zm1 9l18 0c1,0 2,0 2,-1 0,-1 -1,-2 -2,-2l-19 0c-2,0 -2,3 1,3zm14 17l0 8 -20 0c-1,0 -2,-1 -2,-3l0 -38c0,-1 1,-2 2,-2l29 0c1,0 2,1 2,2l0 29 -7 0c-1,0 -2,0 -3,1 0,1 0,1 -1,1 0,1 0,1 0,2zm-26 -33l0 38c0,1 0,2 1,3 0,0 0,0 0,1 0,0 0,0 1,0 1,2 3,2 5,2l19 0c3,0 4,-1 5,-2l7 -7c1,-2 3,-3 3,-5l0 -30c0,-1 -1,-2 -1,-3 -2,-2 -3,-3 -6,-3l-27 0c-3,0 -5,1 -6,4 -1,0 -1,1 -1,2z"/>
 </g>
</svg>
